<svg viewBox="0 0 1400 780" xmlns="http://www.w3.org/2000/svg" font-family="Poppins, sans-serif">
<rect x="0" y="0" width="1400" height="780" fill="#FAF6EA"/>
<g id="cubes">
<path d="M 300.0 276.0 L 332.0 260.0 L 332.0 306.0 L 300.0 322.0 Z" fill="#D0BD86" stroke="#17140F" stroke-width="2.5" stroke-linejoin="round"/>
<path d="M 268.0 260.0 L 300.0 276.0 L 300.0 322.0 L 268.0 306.0 Z" fill="#E4D4A8" stroke="#17140F" stroke-width="2.5" stroke-linejoin="round"/>
<path d="M 300.0 244.0 L 332.0 260.0 L 300.0 276.0 L 268.0 260.0 Z" fill="#F3E9CE" stroke="#17140F" stroke-width="2.5" stroke-linejoin="round"/>
<path d="M 268.0 292.0 L 300.0 276.0 L 300.0 322.0 L 268.0 338.0 Z" fill="#D0BD86" stroke="#17140F" stroke-width="2.5" stroke-linejoin="round"/>
<path d="M 236.0 276.0 L 268.0 292.0 L 268.0 338.0 L 236.0 322.0 Z" fill="#E4D4A8" stroke="#17140F" stroke-width="2.5" stroke-linejoin="round"/>
<path d="M 268.0 260.0 L 300.0 276.0 L 268.0 292.0 L 236.0 276.0 Z" fill="#F3E9CE" stroke="#17140F" stroke-width="2.5" stroke-linejoin="round"/>
<path d="M 332.0 292.0 L 364.0 276.0 L 364.0 322.0 L 332.0 338.0 Z" fill="#D0BD86" stroke="#17140F" stroke-width="2.5" stroke-linejoin="round"/>
<path d="M 300.0 276.0 L 332.0 292.0 L 332.0 338.0 L 300.0 322.0 Z" fill="#E4D4A8" stroke="#17140F" stroke-width="2.5" stroke-linejoin="round"/>
<path d="M 332.0 260.0 L 364.0 276.0 L 332.0 292.0 L 300.0 276.0 Z" fill="#F3E9CE" stroke="#17140F" stroke-width="2.5" stroke-linejoin="round"/>
<path d="M 300.0 308.0 L 332.0 292.0 L 332.0 338.0 L 300.0 354.0 Z" fill="#D0BD86" stroke="#17140F" stroke-width="2.5" stroke-linejoin="round"/>
<path d="M 268.0 292.0 L 300.0 308.0 L 300.0 354.0 L 268.0 338.0 Z" fill="#E4D4A8" stroke="#17140F" stroke-width="2.5" stroke-linejoin="round"/>
<path d="M 300.0 276.0 L 332.0 292.0 L 300.0 308.0 L 268.0 292.0 Z" fill="#F3E9CE" stroke="#17140F" stroke-width="2.5" stroke-linejoin="round"/>
<path d="M 364.0 308.0 L 396.0 292.0 L 396.0 338.0 L 364.0 354.0 Z" fill="#D0BD86" stroke="#17140F" stroke-width="2.5" stroke-linejoin="round"/>
<path d="M 332.0 292.0 L 364.0 308.0 L 364.0 354.0 L 332.0 338.0 Z" fill="#E4D4A8" stroke="#17140F" stroke-width="2.5" stroke-linejoin="round"/>
<path d="M 364.0 276.0 L 396.0 292.0 L 364.0 308.0 L 332.0 292.0 Z" fill="#F3E9CE" stroke="#17140F" stroke-width="2.5" stroke-linejoin="round"/>
<path d="M 332.0 324.0 L 364.0 308.0 L 364.0 354.0 L 332.0 370.0 Z" fill="#D0BD86" stroke="#17140F" stroke-width="2.5" stroke-linejoin="round"/>
<path d="M 300.0 308.0 L 332.0 324.0 L 332.0 370.0 L 300.0 354.0 Z" fill="#E4D4A8" stroke="#17140F" stroke-width="2.5" stroke-linejoin="round"/>
<path d="M 332.0 292.0 L 364.0 308.0 L 332.0 324.0 L 300.0 308.0 Z" fill="#F3E9CE" stroke="#17140F" stroke-width="2.5" stroke-linejoin="round"/>
<path d="M 396.0 324.0 L 428.0 308.0 L 428.0 354.0 L 396.0 370.0 Z" fill="#D0BD86" stroke="#17140F" stroke-width="2.5" stroke-linejoin="round"/>
<path d="M 364.0 308.0 L 396.0 324.0 L 396.0 370.0 L 364.0 354.0 Z" fill="#E4D4A8" stroke="#17140F" stroke-width="2.5" stroke-linejoin="round"/>
<path d="M 396.0 292.0 L 428.0 308.0 L 396.0 324.0 L 364.0 308.0 Z" fill="#F3E9CE" stroke="#17140F" stroke-width="2.5" stroke-linejoin="round"/>
<path d="M 364.0 340.0 L 396.0 324.0 L 396.0 370.0 L 364.0 386.0 Z" fill="#D0BD86" stroke="#17140F" stroke-width="2.5" stroke-linejoin="round"/>
<path d="M 332.0 324.0 L 364.0 340.0 L 364.0 386.0 L 332.0 370.0 Z" fill="#E4D4A8" stroke="#17140F" stroke-width="2.5" stroke-linejoin="round"/>
<path d="M 364.0 308.0 L 396.0 324.0 L 364.0 340.0 L 332.0 324.0 Z" fill="#F3E9CE" stroke="#17140F" stroke-width="2.5" stroke-linejoin="round"/>
<path d="M 396.0 310.0 L 428.0 294.0 L 428.0 340.0 L 396.0 356.0 Z" fill="#D0BD86" stroke="#17140F" stroke-width="2.5" stroke-linejoin="round"/>
<path d="M 364.0 294.0 L 396.0 310.0 L 396.0 356.0 L 364.0 340.0 Z" fill="#E4D4A8" stroke="#17140F" stroke-width="2.5" stroke-linejoin="round"/>
<path d="M 396.0 278.0 L 428.0 294.0 L 396.0 310.0 L 364.0 294.0 Z" fill="#F3E9CE" stroke="#17140F" stroke-width="2.5" stroke-linejoin="round"/>
<path d="M 428.0 280.0 L 460.0 264.0 L 460.0 310.0 L 428.0 326.0 Z" fill="#D0BD86" stroke="#17140F" stroke-width="2.5" stroke-linejoin="round"/>
<path d="M 396.0 264.0 L 428.0 280.0 L 428.0 326.0 L 396.0 310.0 Z" fill="#E4D4A8" stroke="#17140F" stroke-width="2.5" stroke-linejoin="round"/>
<path d="M 428.0 248.0 L 460.0 264.0 L 428.0 280.0 L 396.0 264.0 Z" fill="#F3E9CE" stroke="#17140F" stroke-width="2.5" stroke-linejoin="round"/>
<path d="M 460.0 250.0 L 492.0 234.0 L 492.0 280.0 L 460.0 296.0 Z" fill="#D0BD86" stroke="#17140F" stroke-width="2.5" stroke-linejoin="round"/>
<path d="M 428.0 234.0 L 460.0 250.0 L 460.0 296.0 L 428.0 280.0 Z" fill="#E4D4A8" stroke="#17140F" stroke-width="2.5" stroke-linejoin="round"/>
<path d="M 460.0 218.0 L 492.0 234.0 L 460.0 250.0 L 428.0 234.0 Z" fill="#F3E9CE" stroke="#17140F" stroke-width="2.5" stroke-linejoin="round"/>
<path d="M 492.0 220.0 L 524.0 204.0 L 524.0 250.0 L 492.0 266.0 Z" fill="#D0BD86" stroke="#17140F" stroke-width="2.5" stroke-linejoin="round"/>
<path d="M 460.0 204.0 L 492.0 220.0 L 492.0 266.0 L 460.0 250.0 Z" fill="#E4D4A8" stroke="#17140F" stroke-width="2.5" stroke-linejoin="round"/>
<path d="M 492.0 188.0 L 524.0 204.0 L 492.0 220.0 L 460.0 204.0 Z" fill="#F3E9CE" stroke="#17140F" stroke-width="2.5" stroke-linejoin="round"/>
<path d="M 556.0 220.0 L 588.0 204.0 L 588.0 250.0 L 556.0 266.0 Z" fill="#7FA3E0" stroke="#17140F" stroke-width="2.5" stroke-linejoin="round"/>
<path d="M 524.0 204.0 L 556.0 220.0 L 556.0 266.0 L 524.0 250.0 Z" fill="#A9C3F2" stroke="#17140F" stroke-width="2.5" stroke-linejoin="round"/>
<path d="M 556.0 188.0 L 588.0 204.0 L 556.0 220.0 L 524.0 204.0 Z" fill="#C9DBF7" stroke="#17140F" stroke-width="2.5" stroke-linejoin="round"/>
<path d="M 524.0 236.0 L 556.0 220.0 L 556.0 266.0 L 524.0 282.0 Z" fill="#7FA3E0" stroke="#17140F" stroke-width="2.5" stroke-linejoin="round"/>
<path d="M 492.0 220.0 L 524.0 236.0 L 524.0 282.0 L 492.0 266.0 Z" fill="#A9C3F2" stroke="#17140F" stroke-width="2.5" stroke-linejoin="round"/>
<path d="M 524.0 204.0 L 556.0 220.0 L 524.0 236.0 L 492.0 220.0 Z" fill="#C9DBF7" stroke="#17140F" stroke-width="2.5" stroke-linejoin="round"/>
<path d="M 588.0 236.0 L 620.0 220.0 L 620.0 266.0 L 588.0 282.0 Z" fill="#7FA3E0" stroke="#17140F" stroke-width="2.5" stroke-linejoin="round"/>
<path d="M 556.0 220.0 L 588.0 236.0 L 588.0 282.0 L 556.0 266.0 Z" fill="#A9C3F2" stroke="#17140F" stroke-width="2.5" stroke-linejoin="round"/>
<path d="M 588.0 204.0 L 620.0 220.0 L 588.0 236.0 L 556.0 220.0 Z" fill="#C9DBF7" stroke="#17140F" stroke-width="2.5" stroke-linejoin="round"/>
<path d="M 492.0 252.0 L 524.0 236.0 L 524.0 282.0 L 492.0 298.0 Z" fill="#7FA3E0" stroke="#17140F" stroke-width="2.5" stroke-linejoin="round"/>
<path d="M 460.0 236.0 L 492.0 252.0 L 492.0 298.0 L 460.0 282.0 Z" fill="#A9C3F2" stroke="#17140F" stroke-width="2.5" stroke-linejoin="round"/>
<path d="M 492.0 220.0 L 524.0 236.0 L 492.0 252.0 L 460.0 236.0 Z" fill="#C9DBF7" stroke="#17140F" stroke-width="2.5" stroke-linejoin="round"/>
<path d="M 556.0 252.0 L 588.0 236.0 L 588.0 282.0 L 556.0 298.0 Z" fill="#7FA3E0" stroke="#17140F" stroke-width="2.5" stroke-linejoin="round"/>
<path d="M 524.0 236.0 L 556.0 252.0 L 556.0 298.0 L 524.0 282.0 Z" fill="#A9C3F2" stroke="#17140F" stroke-width="2.5" stroke-linejoin="round"/>
<path d="M 556.0 220.0 L 588.0 236.0 L 556.0 252.0 L 524.0 236.0 Z" fill="#C9DBF7" stroke="#17140F" stroke-width="2.5" stroke-linejoin="round"/>
<path d="M 620.0 252.0 L 652.0 236.0 L 652.0 282.0 L 620.0 298.0 Z" fill="#7FA3E0" stroke="#17140F" stroke-width="2.5" stroke-linejoin="round"/>
<path d="M 588.0 236.0 L 620.0 252.0 L 620.0 298.0 L 588.0 282.0 Z" fill="#A9C3F2" stroke="#17140F" stroke-width="2.5" stroke-linejoin="round"/>
<path d="M 620.0 220.0 L 652.0 236.0 L 620.0 252.0 L 588.0 236.0 Z" fill="#C9DBF7" stroke="#17140F" stroke-width="2.5" stroke-linejoin="round"/>
<path d="M 524.0 268.0 L 556.0 252.0 L 556.0 298.0 L 524.0 314.0 Z" fill="#7FA3E0" stroke="#17140F" stroke-width="2.5" stroke-linejoin="round"/>
<path d="M 492.0 252.0 L 524.0 268.0 L 524.0 314.0 L 492.0 298.0 Z" fill="#A9C3F2" stroke="#17140F" stroke-width="2.5" stroke-linejoin="round"/>
<path d="M 524.0 236.0 L 556.0 252.0 L 524.0 268.0 L 492.0 252.0 Z" fill="#C9DBF7" stroke="#17140F" stroke-width="2.5" stroke-linejoin="round"/>
<path d="M 588.0 268.0 L 620.0 252.0 L 620.0 298.0 L 588.0 314.0 Z" fill="#7FA3E0" stroke="#17140F" stroke-width="2.5" stroke-linejoin="round"/>
<path d="M 556.0 252.0 L 588.0 268.0 L 588.0 314.0 L 556.0 298.0 Z" fill="#A9C3F2" stroke="#17140F" stroke-width="2.5" stroke-linejoin="round"/>
<path d="M 588.0 236.0 L 620.0 252.0 L 588.0 268.0 L 556.0 252.0 Z" fill="#C9DBF7" stroke="#17140F" stroke-width="2.5" stroke-linejoin="round"/>
<path d="M 652.0 268.0 L 684.0 252.0 L 684.0 298.0 L 652.0 314.0 Z" fill="#7FA3E0" stroke="#17140F" stroke-width="2.5" stroke-linejoin="round"/>
<path d="M 620.0 252.0 L 652.0 268.0 L 652.0 314.0 L 620.0 298.0 Z" fill="#A9C3F2" stroke="#17140F" stroke-width="2.5" stroke-linejoin="round"/>
<path d="M 652.0 236.0 L 684.0 252.0 L 652.0 268.0 L 620.0 252.0 Z" fill="#C9DBF7" stroke="#17140F" stroke-width="2.5" stroke-linejoin="round"/>
<path d="M 556.0 284.0 L 588.0 268.0 L 588.0 314.0 L 556.0 330.0 Z" fill="#7FA3E0" stroke="#17140F" stroke-width="2.5" stroke-linejoin="round"/>
<path d="M 524.0 268.0 L 556.0 284.0 L 556.0 330.0 L 524.0 314.0 Z" fill="#A9C3F2" stroke="#17140F" stroke-width="2.5" stroke-linejoin="round"/>
<path d="M 556.0 252.0 L 588.0 268.0 L 556.0 284.0 L 524.0 268.0 Z" fill="#C9DBF7" stroke="#17140F" stroke-width="2.5" stroke-linejoin="round"/>
<path d="M 620.0 284.0 L 652.0 268.0 L 652.0 314.0 L 620.0 330.0 Z" fill="#7FA3E0" stroke="#17140F" stroke-width="2.5" stroke-linejoin="round"/>
<path d="M 588.0 268.0 L 620.0 284.0 L 620.0 330.0 L 588.0 314.0 Z" fill="#A9C3F2" stroke="#17140F" stroke-width="2.5" stroke-linejoin="round"/>
<path d="M 620.0 252.0 L 652.0 268.0 L 620.0 284.0 L 588.0 268.0 Z" fill="#C9DBF7" stroke="#17140F" stroke-width="2.5" stroke-linejoin="round"/>
<path d="M 588.0 300.0 L 620.0 284.0 L 620.0 330.0 L 588.0 346.0 Z" fill="#7FA3E0" stroke="#17140F" stroke-width="2.5" stroke-linejoin="round"/>
<path d="M 556.0 284.0 L 588.0 300.0 L 588.0 346.0 L 556.0 330.0 Z" fill="#A9C3F2" stroke="#17140F" stroke-width="2.5" stroke-linejoin="round"/>
<path d="M 588.0 268.0 L 620.0 284.0 L 588.0 300.0 L 556.0 284.0 Z" fill="#C9DBF7" stroke="#17140F" stroke-width="2.5" stroke-linejoin="round"/>
<path d="M 652.0 254.0 L 684.0 238.0 L 684.0 284.0 L 652.0 300.0 Z" fill="#D0BD86" stroke="#17140F" stroke-width="2.5" stroke-linejoin="round"/>
<path d="M 620.0 238.0 L 652.0 254.0 L 652.0 300.0 L 620.0 284.0 Z" fill="#E4D4A8" stroke="#17140F" stroke-width="2.5" stroke-linejoin="round"/>
<path d="M 652.0 222.0 L 684.0 238.0 L 652.0 254.0 L 620.0 238.0 Z" fill="#F3E9CE" stroke="#17140F" stroke-width="2.5" stroke-linejoin="round"/>
<path d="M 684.0 224.0 L 716.0 208.0 L 716.0 254.0 L 684.0 270.0 Z" fill="#D0BD86" stroke="#17140F" stroke-width="2.5" stroke-linejoin="round"/>
<path d="M 652.0 208.0 L 684.0 224.0 L 684.0 270.0 L 652.0 254.0 Z" fill="#E4D4A8" stroke="#17140F" stroke-width="2.5" stroke-linejoin="round"/>
<path d="M 684.0 192.0 L 716.0 208.0 L 684.0 224.0 L 652.0 208.0 Z" fill="#F3E9CE" stroke="#17140F" stroke-width="2.5" stroke-linejoin="round"/>
<path d="M 748.0 178.0 L 780.0 162.0 L 780.0 208.0 L 748.0 224.0 Z" fill="#D0BD86" stroke="#17140F" stroke-width="2.5" stroke-linejoin="round"/>
<path d="M 716.0 162.0 L 748.0 178.0 L 748.0 224.0 L 716.0 208.0 Z" fill="#E4D4A8" stroke="#17140F" stroke-width="2.5" stroke-linejoin="round"/>
<path d="M 748.0 146.0 L 780.0 162.0 L 748.0 178.0 L 716.0 162.0 Z" fill="#F3E9CE" stroke="#17140F" stroke-width="2.5" stroke-linejoin="round"/>
<path d="M 748.0 132.0 L 780.0 116.0 L 780.0 162.0 L 748.0 178.0 Z" fill="#D0BD86" stroke="#17140F" stroke-width="2.5" stroke-linejoin="round"/>
<path d="M 716.0 116.0 L 748.0 132.0 L 748.0 178.0 L 716.0 162.0 Z" fill="#E4D4A8" stroke="#17140F" stroke-width="2.5" stroke-linejoin="round"/>
<path d="M 748.0 100.0 L 780.0 116.0 L 748.0 132.0 L 716.0 116.0 Z" fill="#F3E9CE" stroke="#17140F" stroke-width="2.5" stroke-linejoin="round"/>
<path d="M 748.0 86.0 L 780.0 70.0 L 780.0 116.0 L 748.0 132.0 Z" fill="#D0BD86" stroke="#17140F" stroke-width="2.5" stroke-linejoin="round"/>
<path d="M 716.0 70.0 L 748.0 86.0 L 748.0 132.0 L 716.0 116.0 Z" fill="#E4D4A8" stroke="#17140F" stroke-width="2.5" stroke-linejoin="round"/>
<path d="M 748.0 54.0 L 780.0 70.0 L 748.0 86.0 L 716.0 70.0 Z" fill="#F3E9CE" stroke="#17140F" stroke-width="2.5" stroke-linejoin="round"/>
<path d="M 716.0 194.0 L 748.0 178.0 L 748.0 224.0 L 716.0 240.0 Z" fill="#D0BD86" stroke="#17140F" stroke-width="2.5" stroke-linejoin="round"/>
<path d="M 684.0 178.0 L 716.0 194.0 L 716.0 240.0 L 684.0 224.0 Z" fill="#E4D4A8" stroke="#17140F" stroke-width="2.5" stroke-linejoin="round"/>
<path d="M 716.0 162.0 L 748.0 178.0 L 716.0 194.0 L 684.0 178.0 Z" fill="#F3E9CE" stroke="#17140F" stroke-width="2.5" stroke-linejoin="round"/>
<path d="M 780.0 194.0 L 812.0 178.0 L 812.0 224.0 L 780.0 240.0 Z" fill="#D0BD86" stroke="#17140F" stroke-width="2.5" stroke-linejoin="round"/>
<path d="M 748.0 178.0 L 780.0 194.0 L 780.0 240.0 L 748.0 224.0 Z" fill="#E4D4A8" stroke="#17140F" stroke-width="2.5" stroke-linejoin="round"/>
<path d="M 780.0 162.0 L 812.0 178.0 L 780.0 194.0 L 748.0 178.0 Z" fill="#F3E9CE" stroke="#17140F" stroke-width="2.5" stroke-linejoin="round"/>
<path d="M 716.0 148.0 L 748.0 132.0 L 748.0 178.0 L 716.0 194.0 Z" fill="#D0BD86" stroke="#17140F" stroke-width="2.5" stroke-linejoin="round"/>
<path d="M 684.0 132.0 L 716.0 148.0 L 716.0 194.0 L 684.0 178.0 Z" fill="#E4D4A8" stroke="#17140F" stroke-width="2.5" stroke-linejoin="round"/>
<path d="M 716.0 116.0 L 748.0 132.0 L 716.0 148.0 L 684.0 132.0 Z" fill="#F3E9CE" stroke="#17140F" stroke-width="2.5" stroke-linejoin="round"/>
<path d="M 780.0 148.0 L 812.0 132.0 L 812.0 178.0 L 780.0 194.0 Z" fill="#D0BD86" stroke="#17140F" stroke-width="2.5" stroke-linejoin="round"/>
<path d="M 748.0 132.0 L 780.0 148.0 L 780.0 194.0 L 748.0 178.0 Z" fill="#E4D4A8" stroke="#17140F" stroke-width="2.5" stroke-linejoin="round"/>
<path d="M 780.0 116.0 L 812.0 132.0 L 780.0 148.0 L 748.0 132.0 Z" fill="#F3E9CE" stroke="#17140F" stroke-width="2.5" stroke-linejoin="round"/>
<path d="M 684.0 210.0 L 716.0 194.0 L 716.0 240.0 L 684.0 256.0 Z" fill="#D0BD86" stroke="#17140F" stroke-width="2.5" stroke-linejoin="round"/>
<path d="M 652.0 194.0 L 684.0 210.0 L 684.0 256.0 L 652.0 240.0 Z" fill="#E4D4A8" stroke="#17140F" stroke-width="2.5" stroke-linejoin="round"/>
<path d="M 684.0 178.0 L 716.0 194.0 L 684.0 210.0 L 652.0 194.0 Z" fill="#F3E9CE" stroke="#17140F" stroke-width="2.5" stroke-linejoin="round"/>
<path d="M 748.0 210.0 L 780.0 194.0 L 780.0 240.0 L 748.0 256.0 Z" fill="#D0BD86" stroke="#17140F" stroke-width="2.5" stroke-linejoin="round"/>
<path d="M 716.0 194.0 L 748.0 210.0 L 748.0 256.0 L 716.0 240.0 Z" fill="#E4D4A8" stroke="#17140F" stroke-width="2.5" stroke-linejoin="round"/>
<path d="M 748.0 178.0 L 780.0 194.0 L 748.0 210.0 L 716.0 194.0 Z" fill="#F3E9CE" stroke="#17140F" stroke-width="2.5" stroke-linejoin="round"/>
<path d="M 748.0 164.0 L 780.0 148.0 L 780.0 194.0 L 748.0 210.0 Z" fill="#D0BD86" stroke="#17140F" stroke-width="2.5" stroke-linejoin="round"/>
<path d="M 716.0 148.0 L 748.0 164.0 L 748.0 210.0 L 716.0 194.0 Z" fill="#E4D4A8" stroke="#17140F" stroke-width="2.5" stroke-linejoin="round"/>
<path d="M 748.0 132.0 L 780.0 148.0 L 748.0 164.0 L 716.0 148.0 Z" fill="#F3E9CE" stroke="#17140F" stroke-width="2.5" stroke-linejoin="round"/>
<path d="M 716.0 226.0 L 748.0 210.0 L 748.0 256.0 L 716.0 272.0 Z" fill="#D0BD86" stroke="#17140F" stroke-width="2.5" stroke-linejoin="round"/>
<path d="M 684.0 210.0 L 716.0 226.0 L 716.0 272.0 L 684.0 256.0 Z" fill="#E4D4A8" stroke="#17140F" stroke-width="2.5" stroke-linejoin="round"/>
<path d="M 716.0 194.0 L 748.0 210.0 L 716.0 226.0 L 684.0 210.0 Z" fill="#F3E9CE" stroke="#17140F" stroke-width="2.5" stroke-linejoin="round"/>
</g>
<g id="people">
<g transform="translate(332.0 274.0) scale(1)">
  <ellipse cx="0" cy="2" rx="14" ry="4" fill="#17140F22"/>
  <rect x="-6" y="-40" width="12" height="24" rx="4" fill="#C1673F" stroke="#17140F" stroke-width="2.5"/>
  <rect x="-9" y="-16" width="7" height="16" rx="2" fill="#C1673F" stroke="#17140F" stroke-width="2.5"/>
  <rect x="2" y="-16" width="7" height="16" rx="2" fill="#C1673F" stroke="#17140F" stroke-width="2.5"/>
  <rect x="-10" y="-62" width="20" height="26" rx="7" fill="#FFFFFF" stroke="#17140F" stroke-width="2.5"/>
  <circle cx="0" cy="-72" r="10" fill="#E8B98C" stroke="#17140F" stroke-width="2.5"/>
</g>
<g transform="translate(364.0 330.0) scale(0.9)">
  <circle cx="0" cy="-20" r="20" fill="#C1673F" stroke="#17140F" stroke-width="2.5"/>
  <path d="M -7 -28 L -7 -12 L 9 -20 Z" fill="#FAF6EA" stroke="#17140F" stroke-width="2" stroke-linejoin="round"/>
</g>
<g transform="translate(588.0 218.0) scale(1)">
  <ellipse cx="0" cy="2" rx="14" ry="4" fill="#17140F22"/>
  <rect x="-6" y="-40" width="12" height="24" rx="4" fill="#17140F" stroke="#17140F" stroke-width="2.5"/>
  <rect x="-9" y="-16" width="7" height="16" rx="2" fill="#17140F" stroke="#17140F" stroke-width="2.5"/>
  <rect x="2" y="-16" width="7" height="16" rx="2" fill="#17140F" stroke="#17140F" stroke-width="2.5"/>
  <rect x="-10" y="-62" width="20" height="26" rx="7" fill="#FFFFFF" stroke="#17140F" stroke-width="2.5"/>
  <circle cx="0" cy="-72" r="10" fill="#E8B98C" stroke="#17140F" stroke-width="2.5"/>
</g>
<g transform="translate(556.0 266.0) scale(0.9)">
  <ellipse cx="0" cy="2" rx="14" ry="4" fill="#17140F22"/>
  <rect x="-6" y="-40" width="12" height="24" rx="4" fill="#17140F" stroke="#17140F" stroke-width="2.5"/>
  <rect x="-9" y="-16" width="7" height="16" rx="2" fill="#17140F" stroke="#17140F" stroke-width="2.5"/>
  <rect x="2" y="-16" width="7" height="16" rx="2" fill="#17140F" stroke="#17140F" stroke-width="2.5"/>
  <rect x="-10" y="-62" width="20" height="26" rx="7" fill="#C1673F" stroke="#17140F" stroke-width="2.5"/>
  <circle cx="0" cy="-72" r="10" fill="#E8B98C" stroke="#17140F" stroke-width="2.5"/>
</g>
<g transform="translate(748.0 100.0) scale(1)">
  <ellipse cx="0" cy="2" rx="14" ry="4" fill="#17140F22"/>
  <rect x="-6" y="-40" width="12" height="24" rx="4" fill="#C1673F" stroke="#17140F" stroke-width="2.5"/>
  <rect x="-9" y="-16" width="7" height="16" rx="2" fill="#C1673F" stroke="#17140F" stroke-width="2.5"/>
  <rect x="2" y="-16" width="7" height="16" rx="2" fill="#C1673F" stroke="#17140F" stroke-width="2.5"/>
  <rect x="-10" y="-62" width="20" height="26" rx="7" fill="#FFFFFF" stroke="#17140F" stroke-width="2.5"/>
  <circle cx="0" cy="-72" r="10" fill="#E8B98C" stroke="#17140F" stroke-width="2.5"/>
</g>
<g transform="translate(748.0 76.0) scale(0.8)">
  <circle cx="0" cy="-20" r="20" fill="#C1673F" stroke="#17140F" stroke-width="2.5"/>
  <path d="M -7 -28 L -7 -12 L 9 -20 Z" fill="#FAF6EA" stroke="#17140F" stroke-width="2" stroke-linejoin="round"/>
</g>
</g>
<g id="labels">
<g transform="translate(266.8 228.0)">
  <rect width="130.4" height="34" rx="17.0" fill="#EFE6D2" stroke="#17140F" stroke-width="2.5"/>
  <text x="65.2" y="22.0" text-anchor="middle" font-family="Poppins, sans-serif" font-weight="600" font-size="14" fill="#17140F">Video Import</text>
</g>
<g transform="translate(304.7 306.0)">
  <rect width="138.6" height="34" rx="17.0" fill="#EFE6D2" stroke="#17140F" stroke-width="2.5"/>
  <text x="69.3" y="22.0" text-anchor="middle" font-family="Poppins, sans-serif" font-weight="600" font-size="14" fill="#17140F">Auto-Chapters</text>
</g>
<g transform="translate(502.3 172.0)">
  <rect width="171.4" height="34" rx="17.0" fill="#DCE9FB" stroke="#17140F" stroke-width="2.5"/>
  <text x="85.7" y="22.0" text-anchor="middle" font-family="Poppins, sans-serif" font-weight="600" font-size="14" fill="#17140F">Structured Course</text>
</g>
<g transform="translate(696.4 64.0)">
  <rect width="163.2" height="34" rx="17.0" fill="#EFE6D2" stroke="#17140F" stroke-width="2.5"/>
  <text x="81.6" y="22.0" text-anchor="middle" font-family="Poppins, sans-serif" font-weight="600" font-size="14" fill="#17140F">Quiz Checkpoints</text>
</g>
<g transform="translate(662.3 12.0)">
  <rect width="171.4" height="34" rx="17.0" fill="#EFE6D2" stroke="#17140F" stroke-width="2.5"/>
  <text x="85.7" y="22.0" text-anchor="middle" font-family="Poppins, sans-serif" font-weight="600" font-size="14" fill="#17140F">Progress Tracking</text>
</g>
</g>
</svg>
